PathFileType	4	(X/Y/Z)	/tmp/tmpsltibevm/results/MarkerData/walking1.trc
DataRate	CameraRate	NumFrames	NumMarkers	Units	OrigDataRate	OrigDataStartFrame	OrigNumFrames
100	100	7	51	m	100	114	131
Frame#	Time	C7			L.ASIS			L.PSIS			L_5meta			L_HJC			L_HJC_reg			L_Shoulder			L_Sternum			L_ankle			L_calc			L_elbow_lat			L_elbow_med			L_forearm			L_humerus			L_knee			L_sh2			L_sh3			L_shank_antsup			L_thigh1			L_thigh2			L_thigh3			L_thigh4			L_toe			L_wrist_radius			L_wrist_ulna			R_HJC			R_HJC_reg			R_Shoulder			R_Sternum			R_elbow_lat			R_elbow_med			R_forearm			R_humerus			R_wrist_radius			R_wrist_ulna			r.ASIS			r.PSIS			r_5meta			r_ankle			r_calc			r_knee			r_sh2			r_sh3			r_sh4			r_shank_antsup			r_thigh1			r_thigh2			r_thigh3			r_thigh4			r_thigh5			r_toe		
		X1	Y1	Z1	X2	Y2	Z2	X3	Y3	Z3	X4	Y4	Z4	X5	Y5	Z5	X6	Y6	Z6	X7	Y7	Z7	X8	Y8	Z8	X9	Y9	Z9	X10	Y10	Z10	X11	Y11	Z11	X12	Y12	Z12	X13	Y13	Z13	X14	Y14	Z14	X15	Y15	Z15	X16	Y16	Z16	X17	Y17	Z17	X18	Y18	Z18	X19	Y19	Z19	X20	Y20	Z20	X21	Y21	Z21	X22	Y22	Z22	X23	Y23	Z23	X24	Y24	Z24	X25	Y25	Z25	X26	Y26	Z26	X27	Y27	Z27	X28	Y28	Z28	X29	Y29	Z29	X30	Y30	Z30	X31	Y31	Z31	X32	Y32	Z32	X33	Y33	Z33	X34	Y34	Z34	X35	Y35	Z35	X36	Y36	Z36	X37	Y37	Z37	X38	Y38	Z38	X39	Y39	Z39	X40	Y40	Z40	X41	Y41	Z41	X42	Y42	Z42	X43	Y43	Z43	X44	Y44	Z44	X45	Y45	Z45	X46	Y46	Z46	X47	Y47	Z47	X48	Y48	Z48	X49	Y49	Z49	X50	Y50	Z50	X51	Y51	Z51

115	1.14	1.17139	1.41873	-0.245229	1.34521	0.925726	-0.365832	1.1416	0.959389	-0.279958	0.95071	0.0371347	-0.356648	1.26649	0.83964	-0.319647	1.28497	0.852508	-0.322667	1.26575	1.38894	-0.388272	1.29842	1.34696	-0.254484	0.886153	0.143927	-0.333119	0.800484	0.140862	-0.283716	1.35961	1.08156	-0.479532	1.33144	1.05719	-0.406557	1.43624	1.07602	-0.466204	1.32936	1.26863	-0.438335	1.14823	0.475549	-0.365275	1.07548	0.436101	-0.390277	0.99887	0.342304	-0.39308	1.13104	0.379249	-0.349256	1.29195	0.698721	-0.385242	1.2702	0.562692	-0.358863	1.1894	0.708322	-0.422207	1.16512	0.581032	-0.384104	1.00327	0.0500796	-0.299861	1.58259	1.00295	-0.399816	1.57137	0.978433	-0.442045	1.26801	0.845686	-0.130202	1.27866	0.841609	-0.153602	1.21808	1.38712	-0.0743554	1.29608	1.34452	-0.207351	1.12103	1.07926	-0.0127973	1.1332	1.06479	-0.0797622	1.14786	1.00959	0.0269936	1.22652	1.25491	-0.0154313	1.15303	0.833641	0.0180945	1.11486	0.849496	0.0452702	1.34553	0.939273	-0.109334	1.13811	0.953379	-0.186593	1.60026	0.0494998	-0.113301	1.4789	0.0879508	-0.153196	1.42356	0.0550825	-0.207826	1.42725	0.490261	-0.111219	1.50534	0.296463	-0.137771	1.42768	0.393463	-0.0838988	1.43827	0.279228	-0.0902362	1.48848	0.407915	-0.127471	1.37263	0.763254	-0.0660666	1.41844	0.664628	-0.0895875	1.3813	0.615198	-0.0607447	1.27364	0.711754	-0.048398	nan	nan	nan	1.6324	0.0828402	-0.166822
116	1.15	1.18491	1.41948	-0.243765	1.36082	0.925988	-0.363296	1.1567	0.959366	-0.279991	0.953046	0.0388519	-0.357052	1.28227	0.839888	-0.317456	1.30051	0.852744	-0.319828	1.27962	1.38957	-0.38684	1.31208	1.34789	-0.252899	0.896074	0.151352	-0.335792	0.810617	0.153996	-0.285933	1.36934	1.08055	-0.478068	1.34148	1.05682	-0.40475	1.44591	1.0739	-0.465386	1.34197	1.26828	-0.43735	1.16924	0.474136	-0.366277	1.09589	0.436495	-0.391216	1.01569	0.34568	-0.394339	1.15003	0.377493	-0.351038	1.3098	0.699125	-0.384134	1.29037	0.562517	-0.358866	1.207	0.707297	-0.421057	1.18488	0.579342	-0.383852	1.00578	0.0492277	-0.300207	1.5917	0.999104	-0.399885	1.57986	0.97455	-0.441929	1.28229	0.847254	-0.128054	1.29298	0.843605	-0.15093	1.23135	1.38769	-0.072831	1.30967	1.34547	-0.205764	1.13656	1.07894	-0.0114976	1.1489	1.06452	-0.0784705	1.16382	1.00954	0.0282846	1.24086	1.25529	-0.0142468	1.17007	0.833658	0.0195061	1.1317	0.849257	0.0466381	1.35968	0.941132	-0.107211	1.15251	0.954302	-0.186155	1.60131	0.0474176	-0.113302	1.48094	0.0880613	-0.153313	1.42435	0.0556377	-0.207678	1.44183	0.491842	-0.110996	1.51437	0.295542	-0.137934	1.44031	0.394613	-0.0828922	1.44763	0.280098	-0.0890973	1.50081	0.407427	-0.127483	1.38722	0.765431	-0.0650164	1.43287	0.666857	-0.0889588	1.3961	0.617383	-0.0598357	1.28848	0.713898	-0.0467518	nan	nan	nan	1.63411	0.0797425	-0.167033
117	1.16	1.19841	1.42052	-0.242312	1.37618	0.92664	-0.360728	1.17166	0.959448	-0.280018	0.956001	0.0415499	-0.357517	1.29795	0.840428	-0.315274	1.31582	0.853267	-0.316819	1.29338	1.39048	-0.385357	1.32568	1.34914	-0.251319	0.90786	0.159463	-0.338479	0.823228	0.168484	-0.288373	1.3788	1.07988	-0.476622	1.35114	1.05684	-0.402948	1.4552	1.07188	-0.464624	1.35444	1.26827	-0.436367	1.19186	0.472638	-0.367523	1.11818	0.436794	-0.392407	1.03442	0.349143	-0.395757	1.17076	0.375631	-0.353106	1.32809	0.699859	-0.383193	1.31164	0.562634	-0.359162	1.22501	0.706172	-0.419884	1.20571	0.57748	-0.383772	1.00901	0.048848	-0.300706	1.60021	0.994796	-0.400144	1.58765	0.97031	-0.442028	1.29652	0.849125	-0.125933	1.30714	0.846143	-0.148168	1.24462	1.3887	-0.0713382	1.32322	1.34678	-0.204188	1.1523	1.07906	-0.0101738	1.16479	1.06473	-0.0771625	1.1801	1.00994	0.0295722	1.2553	1.25618	-0.0130263	1.18772	0.834156	0.0208928	1.14913	0.849443	0.0479766	1.37371	0.943326	-0.105167	1.1668	0.955481	-0.185746	1.60196	0.0459803	-0.113075	1.4824	0.0882888	-0.153379	1.42488	0.0559544	-0.207517	1.45568	0.493224	-0.11062	1.52249	0.294555	-0.137846	1.45193	0.395531	-0.081705	1.45602	0.280816	-0.0878837	1.51209	0.406755	-0.127199	1.40174	0.767726	-0.064284	1.44713	0.669157	-0.0885176	1.41086	0.619714	-0.0587584	1.30337	0.716248	-0.0447578	nan	nan	nan	1.63527	0.0774794	-0.166971
118	1.17	1.21187	1.42179	-0.240872	1.39119	0.927617	-0.358214	1.18641	0.959627	-0.279988	0.959738	0.0453975	-0.358032	1.3134	0.841215	-0.313162	1.3308	0.85402	-0.31374	1.30694	1.39163	-0.383835	1.33919	1.35067	-0.249773	0.921695	0.168128	-0.34109	0.838651	0.184156	-0.290996	1.38799	1.07953	-0.475202	1.36046	1.05724	-0.401144	1.46413	1.06996	-0.463919	1.36672	1.26857	-0.435388	1.21608	0.470992	-0.368966	1.14235	0.43695	-0.393794	1.05518	0.352603	-0.397297	1.19309	0.373632	-0.355255	1.34672	0.700855	-0.38247	1.3339	0.563037	-0.359753	1.24334	0.704896	-0.41869	1.22753	0.575455	-0.383874	1.01306	0.0491045	-0.301419	1.6081	0.990058	-0.400604	1.59473	0.96576	-0.442356	1.31063	0.851185	-0.123894	1.32106	0.849098	-0.145395	1.2579	1.39012	-0.069889	1.33671	1.34839	-0.202647	1.1682	1.0796	-0.00880583	1.18083	1.06542	-0.0758195	1.19666	1.01077	0.0308673	1.26981	1.25756	-0.0117565	1.20597	0.835125	0.0222431	1.16714	0.850038	0.0492863	1.3876	0.945709	-0.103244	1.18093	0.956872	-0.185356	1.60235	0.0449938	-0.112762	1.4834	0.0885531	-0.153447	1.42519	0.0561114	-0.20738	1.4684	0.49421	-0.110041	1.5297	0.293452	-0.137635	1.46239	0.396086	-0.0804927	1.46344	0.281262	-0.0867627	1.52217	0.405833	-0.126768	1.41606	0.76988	-0.0637109	1.46096	0.671201	-0.0880947	1.42513	0.621902	-0.0575236	1.31801	0.718668	-0.0425467	nan	nan	nan	1.63607	0.0757918	-0.166804
119	1.18	1.22524	1.42321	-0.23943	1.40579	0.928839	-0.355849	1.20089	0.959902	-0.279851	0.964478	0.0504742	-0.358596	1.32851	0.84219	-0.311186	1.34535	0.854937	-0.310708	1.32023	1.39297	-0.382298	1.35262	1.35239	-0.248286	0.937708	0.177164	-0.343582	0.857093	0.200675	-0.293728	1.39693	1.07945	-0.473807	1.36949	1.05797	-0.39933	1.4727	1.06813	-0.463271	1.37875	1.26913	-0.434425	1.24175	0.469198	-0.37053	1.16828	0.436942	-0.395286	1.07795	0.355974	-0.398901	1.21684	0.371537	-0.357262	1.36561	0.702044	-0.381992	1.35697	0.563718	-0.360604	1.26193	0.703449	-0.4175	1.25019	0.573299	-0.384149	1.01803	0.0501194	-0.30239	1.61541	0.984921	-0.401282	1.60111	0.960943	-0.442928	1.32458	0.853312	-0.121996	1.3347	0.852306	-0.142701	1.27123	1.39189	-0.0684902	1.35016	1.35024	-0.201165	1.18423	1.08054	-0.0073671	1.19693	1.06658	-0.0744174	1.21348	1.01198	0.0321846	1.28438	1.25936	-0.0104271	1.2248	0.836526	0.0235504	1.1857	0.850994	0.0505731	1.40134	0.94812	-0.101477	1.19487	0.958423	-0.184964	1.6026	0.0443162	-0.11246	1.48407	0.0887805	-0.153529	1.42536	0.0561734	-0.20728	1.47969	0.494693	-0.109244	1.53607	0.292216	-0.13737	1.47163	0.39623	-0.0793697	1.46992	0.281391	-0.0858362	1.53101	0.404648	-0.126277	1.43002	0.771678	-0.0631287	1.47413	0.672717	-0.0875417	1.4385	0.623702	-0.0561696	1.33212	0.721037	-0.040288	nan	nan	nan	1.63661	0.0744973	-0.166641
120	1.19	1.2385	1.42472	-0.237957	1.41993	0.930215	-0.353721	1.21506	0.960282	-0.279571	0.970548	0.0567453	-0.35924	1.34319	0.843298	-0.309404	1.35943	0.85595	-0.30784	1.33318	1.39444	-0.38078	1.36595	1.35424	-0.246885	0.955941	0.186347	-0.345945	0.878549	0.21754	-0.296476	1.4056	1.07957	-0.472432	1.37827	1.05899	-0.397506	1.48094	1.06638	-0.462684	1.39047	1.26988	-0.433508	1.26861	0.467336	-0.372111	1.19571	0.436808	-0.396774	1.10256	0.359189	-0.400505	1.24181	0.369475	-0.358931	1.38465	0.703379	-0.381761	1.38062	0.564691	-0.361649	1.2807	0.701851	-0.416357	1.27355	0.571087	-0.384571	1.02411	0.0519625	-0.303631	1.62212	0.979413	-0.402192	1.60683	0.955889	-0.443755	1.33833	0.855384	-0.120287	1.34804	0.855593	-0.14017	1.28464	1.39392	-0.0671419	1.36357	1.35223	-0.199769	1.20037	1.08181	-0.00582721	1.21303	1.06813	-0.0729282	1.23053	1.01349	0.0335398	1.29903	1.26152	-0.00903721	1.24415	0.838299	0.0248105	1.20478	0.852242	0.0518462	1.41495	0.950405	-0.0999	1.20861	0.960082	-0.184533	1.60278	0.0438608	-0.112215	1.48449	0.0889184	-0.153617	1.42543	0.056184	-0.207222	1.48948	0.494675	-0.108266	1.54162	0.290867	-0.137058	1.47963	0.39601	-0.0783977	1.47548	0.281234	-0.0851379	1.53868	0.403249	-0.125744	1.44346	0.772998	-0.0624076	1.48646	0.673556	-0.0867798	1.45068	0.624976	-0.0547636	1.34548	0.723265	-0.0381524	nan	nan	nan	1.63699	0.073495	-0.166527
121	1.2	1.25164	1.42629	-0.236432	1.4336	0.931668	-0.351901	1.22889	0.960785	-0.279122	0.978421	0.0640518	-0.36004	1.35735	0.844488	-0.30786	1.373	0.857002	-0.305237	1.34578	1.39602	-0.379326	1.3792	1.35615	-0.245589	0.976325	0.195445	-0.348169	0.902734	0.23412	-0.299141	1.41397	1.07982	-0.471068	1.38688	1.06023	-0.395674	1.48885	1.06467	-0.462169	1.40183	1.27075	-0.432676	1.29634	0.465573	-0.373606	1.22434	0.436656	-0.398155	1.12874	0.36222	-0.402051	1.26781	0.36765	-0.36014	1.40373	0.704859	-0.381746	1.40461	0.565996	-0.362802	1.29957	0.700175	-0.415307	1.29741	0.568938	-0.385098	1.03165	0.0546511	-0.30512	1.62826	0.973565	-0.403345	1.61189	0.95062	-0.444838	1.35188	0.857306	-0.118802	1.36108	0.858803	-0.13787	1.29819	1.39612	-0.0658365	1.37695	1.3543	-0.198478	1.2166	1.08333	-0.00415509	1.22907	1.06997	-0.0713228	1.24782	1.01524	0.0349479	1.31377	1.26394	-0.00760201	1.26399	0.84037	0.0260197	1.22431	0.853699	0.0531186	1.42843	0.95244	-0.0985318	1.22212	0.961806	-0.184018	1.6029	0.0435756	-0.112034	1.48474	0.0889469	-0.153695	1.42545	0.0561702	-0.207196	1.49788	0.494257	-0.10719	1.54642	0.289463	-0.136673	1.48646	0.395539	-0.0775915	1.48014	0.280886	-0.0846493	1.54533	0.401731	-0.125131	1.45628	0.77383	-0.0614874	1.49787	0.673725	-0.0858159	1.46158	0.625714	-0.0533879	1.35799	0.725296	-0.0362742	nan	nan	nan	1.63724	0.0727373	-0.166468
